<svg xmlns="http://www.w3.org/2000/svg" xmlns:xlink="http://www.w3.org/1999/xlink" xmlns:lucid="lucid" width="1534" height="742"><g transform="translate(-105 -64)" lucid:page-tab-id="0_0"><path d="M308 186c17.67 0 32 17.9 32 40s-14.33 40-32 40h-96c-17.67 0-32-17.9-32-40s14.33-40 32-40z" stroke="#8ca88e" stroke-width="3" fill="#cbd2c6"/><use xlink:href="#a" transform="matrix(1,0,0,1,185,191) translate(45.13641975308643 39.48888888888889)"/><path d="M440 420c0-3.3 2.7-6 6-6h128c3.3 0 6 2.7 6 6v68c0 3.3-2.7 6-6 6H446c-3.3 0-6-2.7-6-6z" stroke="#8ca88e" stroke-width="3" fill="#cbd2c6"/><use xlink:href="#b" transform="matrix(1,0,0,1,445,419) translate(41.37098765432099 39.48888888888889)"/><path d="M440 192c0-3.3 2.7-6 6-6h128c3.3 0 6 2.7 6 6v68c0 3.3-2.7 6-6 6H446c-3.3 0-6-2.7-6-6z" stroke="#8ca88e" stroke-width="3" fill="#cbd2c6"/><use xlink:href="#c" transform="matrix(1,0,0,1,445,191) translate(20.765740740740753 26.022222222222222)"/><use xlink:href="#d" transform="matrix(1,0,0,1,445,191) translate(10.852777777777796 52.95555555555555)"/><path d="M440 306c0-3.3 2.7-6 6-6h128c3.3 0 6 2.7 6 6v68c0 3.3-2.7 6-6 6H446c-3.3 0-6-2.7-6-6z" stroke="#8ca88e" stroke-width="3" fill="#cbd2c6"/><use xlink:href="#e" transform="matrix(1,0,0,1,445,305) translate(43.86481481481482 39.48888888888889)"/><path d="M901.5 419.7c0-3.3 2.7-6 6-6h128c3.3 0 6 2.7 6 6v68c0 3.3-2.7 6-6 6h-128c-3.3 0-6-2.7-6-6z" stroke="#8ca88e" stroke-width="3" fill="#cbd2c6"/><use xlink:href="#f" transform="matrix(1,0,0,1,906.5,418.69999999999993) translate(24.475308641975317 39.48888888888889)"/><path d="M677 534c0-3.3 2.7-6 6-6h128c3.3 0 6 2.7 6 6v68c0 3.3-2.7 6-6 6H683c-3.3 0-6-2.7-6-6z" stroke="#8ca88e" stroke-width="3" fill="#cbd2c6"/><use xlink:href="#g" transform="matrix(1,0,0,1,682,533) translate(37.59907407407408 39.48888888888889)"/><path d="M677 420c0-3.3 2.7-6 6-6h128c3.3 0 6 2.7 6 6v68c0 3.3-2.7 6-6 6H683c-3.3 0-6-2.7-6-6z" stroke="#8ca88e" stroke-width="3" fill="#cbd2c6"/><use xlink:href="#h" transform="matrix(1,0,0,1,682,419) translate(23.321913580246928 39.48888888888889)"/><path d="M1120 528.28c0-3.3 2.7-6 6-6h128c3.3 0 6 2.7 6 6v68c0 3.32-2.7 6-6 6h-128c-3.3 0-6-2.68-6-6z" stroke="#8ca88e" stroke-width="3" fill="#cbd2c6"/><use xlink:href="#i" transform="matrix(1,0,0,1,1125,527.2819569087785) translate(33.29722222222223 39.48888888888889)"/><path d="M1120 419.7c0-3.3 2.7-6 6-6h128c3.3 0 6 2.7 6 6v68c0 3.3-2.7 6-6 6h-128c-3.3 0-6-2.7-6-6z" stroke="#8ca88e" stroke-width="3" fill="#cbd2c6"/><use xlink:href="#j" transform="matrix(1,0,0,1,1125,418.69999999999993) translate(30.772222222222233 39.48888888888889)"/><path d="M677 306c0-3.3 2.7-6 6-6h128c3.3 0 6 2.7 6 6v68c0 3.3-2.7 6-6 6H683c-3.3 0-6-2.7-6-6z" stroke="#8ca88e" stroke-width="3" fill="#cbd2c6"/><use xlink:href="#k" transform="matrix(1,0,0,1,682,305) translate(17.64845679012347 39.48888888888889)"/><path d="M1330 419.7c0-3.3 2.7-6 6-6h128c3.3 0 6 2.7 6 6v68c0 3.3-2.7 6-6 6h-128c-3.3 0-6-2.7-6-6z" stroke="#8ca88e" stroke-width="3" fill="#cbd2c6"/><use xlink:href="#l" transform="matrix(1,0,0,1,1335,418.69999999999993) translate(36.38333333333334 26.022222222222222)"/><use xlink:href="#m" transform="matrix(1,0,0,1,1335,418.69999999999993) translate(30.803395061728402 52.95555555555555)"/><path d="M342.5 226H420" stroke="#5a786f" stroke-width="2" fill="none"/><path d="M342.53 227h-1.1l.07-.98-.03-1.02h1.06z" stroke="#5a786f" stroke-width=".05" fill="#5a786f"/><path d="M435.26 226L421 230.64v-9.28z" stroke="#5a786f" stroke-width="2" fill="#5a786f"/><path d="M342.5 226H384c3.3 0 6 2.7 6 6v102c0 3.3 2.7 6 6 6h24" stroke="#5a786f" stroke-width="2" fill="none"/><path d="M342.53 227h-1.1l.07-.98-.03-1.02h1.06z" stroke="#5a786f" stroke-width=".05" fill="#5a786f"/><path d="M435.26 340L421 344.64v-9.28z" stroke="#5a786f" stroke-width="2" fill="#5a786f"/><path d="M342.5 226H384c3.3 0 6 2.7 6 6v216c0 3.3 2.7 6 6 6h24" stroke="#5a786f" stroke-width="2" fill="none"/><path d="M342.53 227h-1.1l.07-.98-.03-1.02h1.06z" stroke="#5a786f" stroke-width=".05" fill="#5a786f"/><path d="M435.26 454L421 458.64v-9.28z" stroke="#5a786f" stroke-width="2" fill="#5a786f"/><path d="M582.5 226H657" stroke="#5a786f" stroke-width="2" fill="none"/><path d="M582.53 227h-1.03v-2h1.03z" stroke="#5a786f" stroke-width=".05" fill="#5a786f"/><path d="M672.26 226L658 230.64v-9.28z" stroke="#5a786f" stroke-width="2" fill="#5a786f"/><path d="M677 192c0-3.3 2.7-6 6-6h128c3.3 0 6 2.7 6 6v68c0 3.3-2.7 6-6 6H683c-3.3 0-6-2.7-6-6z" stroke="#8ca88e" stroke-width="3" fill="#cbd2c6"/><use xlink:href="#n" transform="matrix(1,0,0,1,682,191) translate(20.765740740740753 39.48888888888889)"/><path d="M898.5 192c0-3.3 2.7-6 6-6h128c3.3 0 6 2.7 6 6v68c0 3.3-2.7 6-6 6h-128c-3.3 0-6-2.7-6-6z" stroke="#8ca88e" stroke-width="3" fill="#cbd2c6"/><use xlink:href="#c" transform="matrix(1,0,0,1,903.5,191) translate(20.765740740740753 26.022222222222222)"/><use xlink:href="#m" transform="matrix(1,0,0,1,903.5,191) translate(30.803395061728402 52.95555555555555)"/><path d="M819.5 226h59" stroke="#5a786f" stroke-width="2" fill="none"/><path d="M819.53 227h-1.03v-2h1.03z" stroke="#5a786f" stroke-width=".05" fill="#5a786f"/><path d="M893.76 226l-14.26 4.64v-9.28z" stroke="#5a786f" stroke-width="2" fill="#5a786f"/><path d="M582.5 454H657" stroke="#5a786f" stroke-width="2" fill="none"/><path d="M582.53 455h-1.03v-2h1.03z" stroke="#5a786f" stroke-width=".05" fill="#5a786f"/><path d="M672.26 454L658 458.64v-9.28z" stroke="#5a786f" stroke-width="2" fill="#5a786f"/><path d="M582.5 454h40c3.3 0 6 2.7 6 6v102c0 3.3 2.7 6 6 6H657" stroke="#5a786f" stroke-width="2" fill="none"/><path d="M582.53 455h-1.03v-2h1.03z" stroke="#5a786f" stroke-width=".05" fill="#5a786f"/><path d="M672.26 568L658 572.64v-9.28z" stroke="#5a786f" stroke-width="2" fill="#5a786f"/><path d="M582.5 340H657" stroke="#5a786f" stroke-width="2" fill="none"/><path d="M582.53 341h-1.03v-2h1.03z" stroke="#5a786f" stroke-width=".05" fill="#5a786f"/><path d="M672.26 340L658 344.64v-9.28z" stroke="#5a786f" stroke-width="2" fill="#5a786f"/><path d="M819.5 454h39.6c.08 0 .15-.07.15-.15 0-.08.07-.15.15-.15h22.1" stroke="#5a786f" stroke-width="2" fill="none"/><path d="M819.53 455h-1.03v-2h1.03z" stroke="#5a786f" stroke-width=".05" fill="#5a786f"/><path d="M896.76 453.7l-14.26 4.64v-9.28z" stroke="#5a786f" stroke-width="2" fill="#5a786f"/><path d="M819.5 568h33.75c3.3 0 6-2.7 6-6V459.7c0-3.3 2.7-6 6-6h16.25" stroke="#5a786f" stroke-width="2" fill="none"/><path d="M819.53 569h-1.03v-2h1.03z" stroke="#5a786f" stroke-width=".05" fill="#5a786f"/><path d="M896.76 453.7l-14.26 4.64v-9.28z" stroke="#5a786f" stroke-width="2" fill="#5a786f"/><path d="M1044 453.7h56" stroke="#5a786f" stroke-width="2" fill="none"/><path d="M1044.03 454.7H1043v-2h1.03z" stroke="#5a786f" stroke-width=".05" fill="#5a786f"/><path d="M1115.26 453.7l-14.26 4.64v-9.28z" stroke="#5a786f" stroke-width="2" fill="#5a786f"/><path d="M1044 453.7h30.75c3.3 0 6 2.7 6 6v96.58c0 3.32 2.7 6 6 6H1100" stroke="#5a786f" stroke-width="2" fill="none"/><path d="M1044.03 454.7H1043v-2h1.03z" stroke="#5a786f" stroke-width=".05" fill="#5a786f"/><path d="M1115.26 562.28l-14.26 4.64v-9.27z" stroke="#5a786f" stroke-width="2" fill="#5a786f"/><path d="M1262.5 453.7h47.5" stroke="#5a786f" stroke-width="2" fill="none"/><path d="M1262.53 454.7h-1.03v-2h1.03z" stroke="#5a786f" stroke-width=".05" fill="#5a786f"/><path d="M1325.26 453.7l-14.26 4.64v-9.28z" stroke="#5a786f" stroke-width="2" fill="#5a786f"/><path d="M819.5 340H1394c3.3 0 6 2.7 6 6v47.7" stroke="#5a786f" stroke-width="2" fill="none"/><path d="M819.53 341h-1.03v-2h1.03z" stroke="#5a786f" stroke-width=".05" fill="#5a786f"/><path d="M1400 408.96l-4.64-14.26h9.28z" stroke="#5a786f" stroke-width="2" fill="#5a786f"/><path d="M440 658.75c0-3.3 2.7-6 6-6h128c3.3 0 6 2.7 6 6v68c0 3.3-2.7 6-6 6H446c-3.3 0-6-2.7-6-6z" stroke="#8ca88e" stroke-width="3" fill="#cbd2c6"/><use xlink:href="#o" transform="matrix(1,0,0,1,445,657.7499999999836) translate(29.494135802469145 39.48888888888889)"/><path d="M342.5 226H384c3.3 0 6 2.7 6 6v454.75c0 3.3 2.7 6 6 6h24" stroke="#5a786f" stroke-width="2" fill="none"/><path d="M342.53 227h-1.1l.07-.98-.03-1.02h1.06z" stroke="#5a786f" stroke-width=".05" fill="#5a786f"/><path d="M435.26 692.75L421 697.4v-9.3z" stroke="#5a786f" stroke-width="2" fill="#5a786f"/><path d="M677 658.75c0-3.3 2.7-6 6-6h128c3.3 0 6 2.7 6 6v68c0 3.3-2.7 6-6 6H683c-3.3 0-6-2.7-6-6z" stroke="#8ca88e" stroke-width="3" fill="#cbd2c6"/><use xlink:href="#p" transform="matrix(1,0,0,1,682,657.7499999999836) translate(29.494135802469145 26.022222222222222)"/><use xlink:href="#q" transform="matrix(1,0,0,1,682,657.7499999999836) translate(27.654938271604948 52.95555555555555)"/><path d="M582.5 692.75H657" stroke="#5a786f" stroke-width="2" fill="none"/><path d="M582.53 693.75h-1.03v-2h1.03z" stroke="#5a786f" stroke-width=".05" fill="#5a786f"/><path d="M672.26 692.75L658 697.4v-9.3z" stroke="#5a786f" stroke-width="2" fill="#5a786f"/><defs><path fill="#323e45" d="M179 0l23-115H67L45 0H11l48-248h34L72-143h135l21-105h32L212 0h-33" id="r"/><path fill="#323e45" d="M30-147c31-64 166-65 159 27C183-49 158 1 86 4 9 8 1-88 30-147zM88-20c53 0 68-48 68-100 0-31-11-51-44-50-52 1-68 46-68 97 0 32 13 53 44 53" id="s"/><path fill="#323e45" d="M248-111c6-24 9-61-24-58-72 9-57 108-77 169h-31l26-142c3-37-50-30-64-10C52-115 50-51 37 0H6l36-190h30c-1 10-6 24-4 32 13-43 101-52 105 5 13-22 29-41 61-41 90 0 28 129 23 194h-31" id="t"/><path fill="#323e45" d="M111-194c62-3 86 47 72 106H45c-7 38 6 69 45 68 27-1 43-14 53-32l24 11C152-15 129 4 87 4 38 3 12-23 12-71c0-70 32-119 99-123zm44 81c14-66-71-72-95-28-4 8-8 17-11 28h106" id="u"/><g id="a"><use transform="matrix(0.06234567901234567,0,0,0.06234567901234567,0,0)" xlink:href="#r"/><use transform="matrix(0.06234567901234567,0,0,0.06234567901234567,16.147530864197527,0)" xlink:href="#s"/><use transform="matrix(0.06234567901234567,0,0,0.06234567901234567,28.61666666666666,0)" xlink:href="#t"/><use transform="matrix(0.06234567901234567,0,0,0.06234567901234567,47.25802469135802,0)" xlink:href="#u"/></g><path fill="#323e45" d="M62-99C39-31 123 0 170-40s38-139 58-208h34C234-144 253 4 115 4 49 4 18-43 31-112l26-136h34" id="v"/><path fill="#323e45" d="M55-144c13 50 104 24 104 88C159 21 15 23 1-39l26-10c6 40 102 42 102-4-13-50-104-23-104-87 0-71 143-71 148-8l-29 4c-5-35-85-37-89 0" id="w"/><path fill="#323e45" d="M66-151c12-25 30-51 66-40l-6 26C45-176 58-65 38 0H6l36-190h30" id="x"/><g id="b"><use transform="matrix(0.06234567901234567,0,0,0.06234567901234567,0,0)" xlink:href="#v"/><use transform="matrix(0.06234567901234567,0,0,0.06234567901234567,16.147530864197527,0)" xlink:href="#w"/><use transform="matrix(0.06234567901234567,0,0,0.06234567901234567,27.36975308641975,0)" xlink:href="#u"/><use transform="matrix(0.06234567901234567,0,0,0.06234567901234567,39.83888888888888,0)" xlink:href="#x"/></g><path fill="#323e45" d="M238-179c0 84-86 86-175 82L45 0H11l48-248c82 0 179-12 179 69zm-34 1c0-53-64-42-116-43l-19 98c63 0 135 9 135-55" id="y"/><path fill="#323e45" d="M133-28C103 26-5 8 13-77c13-62 24-115 90-117 29-1 46 15 56 35l19-102h32L160 0h-30zM45-64c-2 27 10 43 35 43 54-1 69-50 69-103 0-29-15-46-42-46-53-1-58 58-62 106" id="z"/><path fill="#323e45" d="M67 3c-93-2-31-127-26-193h32L48-50c-3 39 53 32 70 12 30-34 30-101 43-152h32L157 0h-30c1-10 6-24 4-33-14 20-29 37-64 36" id="A"/><path fill="#323e45" d="M44-68c0 29 11 47 38 47 30 0 42-19 51-41l28 9C148-21 126 4 82 4 31 4 10-29 12-85c3-77 74-140 146-93 12 8 15 23 18 40l-31 5c-1-22-13-36-36-36-52 0-65 49-65 101" id="B"/><path fill="#323e45" d="M51-54c-9 22 5 41 31 30L79-1C43 14 10-4 19-52l22-115H19l5-23h22l19-43h21l-9 43h35l-4 23H73" id="C"/><g id="c"><use transform="matrix(0.06234567901234567,0,0,0.06234567901234567,0,0)" xlink:href="#y"/><use transform="matrix(0.06234567901234567,0,0,0.06234567901234567,14.96296296296296,0)" xlink:href="#x"/><use transform="matrix(0.06234567901234567,0,0,0.06234567901234567,22.382098765432094,0)" xlink:href="#s"/><use transform="matrix(0.06234567901234567,0,0,0.06234567901234567,34.85123456790123,0)" xlink:href="#z"/><use transform="matrix(0.06234567901234567,0,0,0.06234567901234567,47.32037037037036,0)" xlink:href="#A"/><use transform="matrix(0.06234567901234567,0,0,0.06234567901234567,59.789506172839495,0)" xlink:href="#B"/><use transform="matrix(0.06234567901234567,0,0,0.06234567901234567,71.01172839506171,0)" xlink:href="#C"/><use transform="matrix(0.06234567901234567,0,0,0.06234567901234567,77.24629629629628,0)" xlink:href="#w"/></g><path fill="#323e45" d="M125-24c46 0 70-25 89-51l25 16C214-24 183 4 123 4 8 4-5-146 60-208c32-50 158-61 191-5 5 7 9 14 11 22l-32 10c-9-28-33-43-69-43-74 0-108 51-108 125 0 46 24 75 72 75" id="D"/><path fill="#323e45" d="M165-48c-4 18 1 34 23 27l-3 20c-29 8-62 0-52-35h-2C116-14 99 4 63 4 30 4 8-16 8-49c0-68 71-67 138-67 10-26 0-56-31-54-26 1-42 9-47 31l-32-5c8-67 160-71 144 15-5 28-9 54-15 81zM42-50c3 52 80 24 89-6 7-12 7-24 11-38-47 1-103-4-100 44" id="E"/><path fill="#323e45" d="M103-194c29 0 47 14 56 36 2-11 5-23 8-32h30L160-5C157 61 82 97 21 62 9 55 4 45 1 30l28-7c7 42 83 31 92-3 4-16 9-38 13-55-13 20-29 36-62 36-40 0-60-25-60-64 0-71 23-131 91-131zm4 24c-53 0-58 54-61 104-2 27 10 44 36 44 49 0 65-50 67-102 1-29-15-46-42-46" id="F"/><path fill="#323e45" d="M50-231l6-30h32l-6 30H50zM6 0l37-190h31L37 0H6" id="G"/><g id="d"><use transform="matrix(0.06234567901234567,0,0,0.06234567901234567,0,0)" xlink:href="#D"/><use transform="matrix(0.06234567901234567,0,0,0.06234567901234567,16.147530864197527,0)" xlink:href="#E"/><use transform="matrix(0.06234567901234567,0,0,0.06234567901234567,28.61666666666666,0)" xlink:href="#C"/><use transform="matrix(0.06234567901234567,0,0,0.06234567901234567,34.85123456790123,0)" xlink:href="#u"/><use transform="matrix(0.06234567901234567,0,0,0.06234567901234567,47.32037037037036,0)" xlink:href="#F"/><use transform="matrix(0.06234567901234567,0,0,0.06234567901234567,59.789506172839495,0)" xlink:href="#s"/><use transform="matrix(0.06234567901234567,0,0,0.06234567901234567,72.25864197530862,0)" xlink:href="#x"/><use transform="matrix(0.06234567901234567,0,0,0.06234567901234567,79.67777777777775,0)" xlink:href="#G"/><use transform="matrix(0.06234567901234567,0,0,0.06234567901234567,84.60308641975305,0)" xlink:href="#u"/><use transform="matrix(0.06234567901234567,0,0,0.06234567901234567,97.0722222222222,0)" xlink:href="#w"/></g><g id="e"><use transform="matrix(0.06234567901234567,0,0,0.06234567901234567,0,0)" xlink:href="#D"/><use transform="matrix(0.06234567901234567,0,0,0.06234567901234567,16.147530864197527,0)" xlink:href="#E"/><use transform="matrix(0.06234567901234567,0,0,0.06234567901234567,28.61666666666666,0)" xlink:href="#x"/><use transform="matrix(0.06234567901234567,0,0,0.06234567901234567,36.035802469135795,0)" xlink:href="#C"/></g><path fill="#323e45" d="M187 0l-14-72H61L19 0h-37l149-248h38L221 0h-34zm-19-99l-22-123L76-99h92" id="H"/><path fill="#323e45" d="M67-158c22-48 132-52 116 29L158 0h-32l25-140c3-38-53-32-70-12C52-117 51-52 38 0H6l36-190h30" id="I"/><g id="f"><use transform="matrix(0.06234567901234567,0,0,0.06234567901234567,0,0)" xlink:href="#H"/><use transform="matrix(0.06234567901234567,0,0,0.06234567901234567,14.96296296296296,0)" xlink:href="#B"/><use transform="matrix(0.06234567901234567,0,0,0.06234567901234567,26.18518518518518,0)" xlink:href="#B"/><use transform="matrix(0.06234567901234567,0,0,0.06234567901234567,37.4074074074074,0)" xlink:href="#s"/><use transform="matrix(0.06234567901234567,0,0,0.06234567901234567,49.87654320987653,0)" xlink:href="#A"/><use transform="matrix(0.06234567901234567,0,0,0.06234567901234567,62.34567901234566,0)" xlink:href="#I"/><use transform="matrix(0.06234567901234567,0,0,0.06234567901234567,74.8148148148148,0)" xlink:href="#C"/></g><path fill="#323e45" d="M11 0l48-248h34L50-27h125l-5 27H11" id="J"/><g id="g"><use transform="matrix(0.06234567901234567,0,0,0.06234567901234567,0,0)" xlink:href="#J"/><use transform="matrix(0.06234567901234567,0,0,0.06234567901234567,12.469135802469133,0)" xlink:href="#s"/><use transform="matrix(0.06234567901234567,0,0,0.06234567901234567,24.938271604938265,0)" xlink:href="#F"/><use transform="matrix(0.06234567901234567,0,0,0.06234567901234567,37.4074074074074,0)" xlink:href="#G"/><use transform="matrix(0.06234567901234567,0,0,0.06234567901234567,42.332716049382704,0)" xlink:href="#I"/></g><path fill="#323e45" d="M249-183c0 48-29 72-75 77L221 0h-36l-43-103H65L45 0H11l48-248c83 2 190-17 190 65zm-34 3c0-55-74-39-127-41l-18 92c63-1 145 13 145-51" id="K"/><g id="h"><use transform="matrix(0.06234567901234567,0,0,0.06234567901234567,0,0)" xlink:href="#K"/><use transform="matrix(0.06234567901234567,0,0,0.06234567901234567,16.147530864197527,0)" xlink:href="#u"/><use transform="matrix(0.06234567901234567,0,0,0.06234567901234567,28.61666666666666,0)" xlink:href="#F"/><use transform="matrix(0.06234567901234567,0,0,0.06234567901234567,41.08580246913579,0)" xlink:href="#G"/><use transform="matrix(0.06234567901234567,0,0,0.06234567901234567,46.0111111111111,0)" xlink:href="#w"/><use transform="matrix(0.06234567901234567,0,0,0.06234567901234567,57.23333333333332,0)" xlink:href="#C"/><use transform="matrix(0.06234567901234567,0,0,0.06234567901234567,63.46790123456789,0)" xlink:href="#u"/><use transform="matrix(0.06234567901234567,0,0,0.06234567901234567,75.93703703703702,0)" xlink:href="#x"/></g><path fill="#323e45" d="M76-167L44 0H12l33-167H18l4-23h27c3-47 25-81 82-69l-4 24c-35-8-44 15-46 45h37l-5 23H76" id="L"/><path fill="#323e45" d="M6 0l50-261h32L37 0H6" id="M"/><g id="i"><use transform="matrix(0.06234567901234567,0,0,0.06234567901234567,0,0)" xlink:href="#y"/><use transform="matrix(0.06234567901234567,0,0,0.06234567901234567,14.96296296296296,0)" xlink:href="#x"/><use transform="matrix(0.06234567901234567,0,0,0.06234567901234567,22.382098765432094,0)" xlink:href="#s"/><use transform="matrix(0.06234567901234567,0,0,0.06234567901234567,34.85123456790123,0)" xlink:href="#L"/><use transform="matrix(0.06234567901234567,0,0,0.06234567901234567,41.0858024691358,0)" xlink:href="#G"/><use transform="matrix(0.06234567901234567,0,0,0.06234567901234567,46.011111111111106,0)" xlink:href="#M"/><use transform="matrix(0.06234567901234567,0,0,0.06234567901234567,50.93641975308641,0)" xlink:href="#u"/></g><path fill="#323e45" d="M20-101c0-91 52-143 145-150 126-9 127 168 53 223-23 17-55 32-93 32C57 4 20-33 20-101zm216-33c5-57-18-91-73-90-77 1-110 51-110 125 0 49 23 75 73 75 72-1 104-45 110-110" id="N"/><g id="j"><use transform="matrix(0.06234567901234567,0,0,0.06234567901234567,0,0)" xlink:href="#N"/><use transform="matrix(0.06234567901234567,0,0,0.06234567901234567,17.456790123456788,0)" xlink:href="#x"/><use transform="matrix(0.06234567901234567,0,0,0.06234567901234567,24.875925925925923,0)" xlink:href="#z"/><use transform="matrix(0.06234567901234567,0,0,0.06234567901234567,37.34506172839505,0)" xlink:href="#u"/><use transform="matrix(0.06234567901234567,0,0,0.06234567901234567,49.814197530864185,0)" xlink:href="#x"/><use transform="matrix(0.06234567901234567,0,0,0.06234567901234567,57.23333333333332,0)" xlink:href="#w"/></g><path fill="#323e45" d="M67-158c15-20 31-36 64-36 94 0 33 127 27 194h-32l25-140c3-38-53-32-70-12C52-117 51-51 37 0H6l51-261h31" id="O"/><path fill="#323e45" d="M127 0L80-88 50-66 37 0H6l51-261h31L57-100l99-90h39l-93 82L161 0h-34" id="P"/><g id="k"><use transform="matrix(0.06234567901234567,0,0,0.06234567901234567,0,0)" xlink:href="#D"/><use transform="matrix(0.06234567901234567,0,0,0.06234567901234567,16.147530864197527,0)" xlink:href="#O"/><use transform="matrix(0.06234567901234567,0,0,0.06234567901234567,28.61666666666666,0)" xlink:href="#u"/><use transform="matrix(0.06234567901234567,0,0,0.06234567901234567,41.08580246913579,0)" xlink:href="#B"/><use transform="matrix(0.06234567901234567,0,0,0.06234567901234567,52.308024691358014,0)" xlink:href="#P"/><use transform="matrix(0.06234567901234567,0,0,0.06234567901234567,63.530246913580235,0)" xlink:href="#s"/><use transform="matrix(0.06234567901234567,0,0,0.06234567901234567,75.99938271604937,0)" xlink:href="#A"/><use transform="matrix(0.06234567901234567,0,0,0.06234567901234567,88.4685185185185,0)" xlink:href="#C"/></g><g id="l"><use transform="matrix(0.06234567901234567,0,0,0.06234567901234567,0,0)" xlink:href="#N"/><use transform="matrix(0.06234567901234567,0,0,0.06234567901234567,17.456790123456788,0)" xlink:href="#x"/><use transform="matrix(0.06234567901234567,0,0,0.06234567901234567,24.875925925925923,0)" xlink:href="#z"/><use transform="matrix(0.06234567901234567,0,0,0.06234567901234567,37.34506172839505,0)" xlink:href="#u"/><use transform="matrix(0.06234567901234567,0,0,0.06234567901234567,49.814197530864185,0)" xlink:href="#x"/></g><path fill="#323e45" d="M248-139C247-14 144 9 11 0l48-248c105-6 190 8 189 109zm-34 0c1-70-52-87-126-82L50-27c98 7 163-21 164-112" id="Q"/><g id="m"><use transform="matrix(0.06234567901234567,0,0,0.06234567901234567,0,0)" xlink:href="#Q"/><use transform="matrix(0.06234567901234567,0,0,0.06234567901234567,16.147530864197527,0)" xlink:href="#u"/><use transform="matrix(0.06234567901234567,0,0,0.06234567901234567,28.61666666666666,0)" xlink:href="#C"/><use transform="matrix(0.06234567901234567,0,0,0.06234567901234567,34.85123456790123,0)" xlink:href="#E"/><use transform="matrix(0.06234567901234567,0,0,0.06234567901234567,47.32037037037036,0)" xlink:href="#G"/><use transform="matrix(0.06234567901234567,0,0,0.06234567901234567,52.24567901234567,0)" xlink:href="#M"/><use transform="matrix(0.06234567901234567,0,0,0.06234567901234567,57.170987654320975,0)" xlink:href="#w"/></g><g id="n"><use transform="matrix(0.06234567901234567,0,0,0.06234567901234567,0,0)" xlink:href="#y"/><use transform="matrix(0.06234567901234567,0,0,0.06234567901234567,14.96296296296296,0)" xlink:href="#x"/><use transform="matrix(0.06234567901234567,0,0,0.06234567901234567,22.382098765432094,0)" xlink:href="#s"/><use transform="matrix(0.06234567901234567,0,0,0.06234567901234567,34.85123456790123,0)" xlink:href="#z"/><use transform="matrix(0.06234567901234567,0,0,0.06234567901234567,47.32037037037036,0)" xlink:href="#A"/><use transform="matrix(0.06234567901234567,0,0,0.06234567901234567,59.789506172839495,0)" xlink:href="#B"/><use transform="matrix(0.06234567901234567,0,0,0.06234567901234567,71.01172839506171,0)" xlink:href="#C"/><use transform="matrix(0.06234567901234567,0,0,0.06234567901234567,77.24629629629628,0)" xlink:href="#w"/></g><path fill="#323e45" d="M194-120c59 52 2 134-86 124-53-6-90-18-98-63l31-7c8 30 29 43 70 43 46 0 84-17 71-62-32-43-135-20-137-98-3-89 178-90 191-16l-30 9c-8-48-127-53-127 5 0 53 81 35 115 65" id="R"/><g id="o"><use transform="matrix(0.06234567901234567,0,0,0.06234567901234567,0,0)" xlink:href="#R"/><use transform="matrix(0.06234567901234567,0,0,0.06234567901234567,14.96296296296296,0)" xlink:href="#u"/><use transform="matrix(0.06234567901234567,0,0,0.06234567901234567,27.432098765432094,0)" xlink:href="#E"/><use transform="matrix(0.06234567901234567,0,0,0.06234567901234567,39.90123456790123,0)" xlink:href="#x"/><use transform="matrix(0.06234567901234567,0,0,0.06234567901234567,47.32037037037036,0)" xlink:href="#B"/><use transform="matrix(0.06234567901234567,0,0,0.06234567901234567,58.542592592592584,0)" xlink:href="#O"/></g><g id="p"><use transform="matrix(0.06234567901234567,0,0,0.06234567901234567,0,0)" xlink:href="#R"/><use transform="matrix(0.06234567901234567,0,0,0.06234567901234567,14.96296296296296,0)" xlink:href="#u"/><use transform="matrix(0.06234567901234567,0,0,0.06234567901234567,27.432098765432094,0)" xlink:href="#E"/><use transform="matrix(0.06234567901234567,0,0,0.06234567901234567,39.90123456790123,0)" xlink:href="#x"/><use transform="matrix(0.06234567901234567,0,0,0.06234567901234567,47.32037037037036,0)" xlink:href="#B"/><use transform="matrix(0.06234567901234567,0,0,0.06234567901234567,58.542592592592584,0)" xlink:href="#O"/></g><g id="q"><use transform="matrix(0.06234567901234567,0,0,0.06234567901234567,0,0)" xlink:href="#K"/><use transform="matrix(0.06234567901234567,0,0,0.06234567901234567,16.147530864197527,0)" xlink:href="#u"/><use transform="matrix(0.06234567901234567,0,0,0.06234567901234567,28.61666666666666,0)" xlink:href="#w"/><use transform="matrix(0.06234567901234567,0,0,0.06234567901234567,39.83888888888888,0)" xlink:href="#A"/><use transform="matrix(0.06234567901234567,0,0,0.06234567901234567,52.308024691358014,0)" xlink:href="#M"/><use transform="matrix(0.06234567901234567,0,0,0.06234567901234567,57.23333333333332,0)" xlink:href="#C"/><use transform="matrix(0.06234567901234567,0,0,0.06234567901234567,63.46790123456789,0)" xlink:href="#w"/></g></defs></g></svg>